<!DOCTYPE svg PUBLIC "-//W3C//DTD SVG 1.1//EN" "http://www.w3.org/Graphics/SVG/1.1/DTD/svg11.dtd">
<!-- Uploaded to: SVG Repo, www.svgrepo.com, Transformed by: SVG Repo Mixer Tools -->
<svg fill="#ff0000" width="800px" height="800px" viewBox="0 0 24 24" id="88d39493-c6ac-4210-b3d4-e3c35835476f" data-name="Livello 1" xmlns="http://www.w3.org/2000/svg" stroke="#ff0000">
<g id="SVGRepo_bgCarrier" stroke-width="0"/>
<g id="SVGRepo_tracerCarrier" stroke-linecap="round" stroke-linejoin="round"/>
<g id="SVGRepo_iconCarrier"> <title>prime</title> <g id="32843b47-c45c-4436-b212-99015eb713a5" data-name="delete"> <path d="M23,2H17V0H7V2H1A1,1,0,0,0,0,3V5A1,1,0,0,0,1,6H23a1,1,0,0,0,1-1V3A1,1,0,0,0,23,2Z"/> <path d="M18.28,24H5.82a2,2,0,0,1-2-1.75L2,8H22L20.27,22.25A2,2,0,0,1,18.28,24Z"/> </g> </g>
</svg>